PathFileType	4	(X/Y/Z)	pose_F01_0-75.trc
DataRate	CameraRate	NumFrames	NumMarkers	Units	OrigDataRate	OrigDataStartFrame	OrigNumFrames
30	30	11	21	m	30	0	75
Frame#	Time	CHip			RHip			RKnee			RAnkle			RBigToe			RSmallToe			RHeel			LHip			LKnee			LAnkle			LBigToe			LSmallToe			LHeel			Neck			Nose			RShoulder			RElbow			RWrist			LShoulder			LElbow			LWrist			
		X1	Y1	Z1	X2	Y2	Z2	X3	Y3	Z3	X4	Y4	Z4	X5	Y5	Z5	X6	Y6	Z6	X7	Y7	Z7	X8	Y8	Z8	X9	Y9	Z9	X10	Y10	Z10	X11	Y11	Z11	X12	Y12	Z12	X13	Y13	Z13	X14	Y14	Z14	X15	Y15	Z15	X16	Y16	Z16	X17	Y17	Z17	X18	Y18	Z18	X19	Y19	Z19	X20	Y20	Z20	X21	Y21	Z21	
0	0.0	-0.22618442401563799	1.8476878980834708	-0.33714770792807874	-0.23790938944961554	1.8440603786721481	-0.27045785914148707																-0.2145895529427756	1.8508681703667298	-0.3840008536925961																-0.23782294271819288	1.9890795055872927	-0.35576123550516175	-0.2541603443907425	2.0353144620390737	-0.41559994356926244	-0.25047393103744076	1.9843047698101506	-0.2625177212886443	-0.2669209748935864	1.898900530192531	-0.26160916823631875	-0.2574200991743516	1.952882802639802	-0.28119255576754976	-0.21926089533585216	1.9934282333866435	-0.4534675167606081	-0.2129258770850357	1.9376734276492937	-0.5257598403346823	-0.21956543172686643	1.889428376523417	-0.6117874234777658
1	0.03333333333333333	-0.22792145425807286	1.8508508326613657	-0.33576713101403416	-0.2390163625283746	1.8481195861093276	-0.2746470191273507																-0.21760233325078662	1.855428243030532	-0.3944896124207341																-0.23682585124982797	1.9953822706477071	-0.3539237845548446	-0.25558763218530944	2.0398237045478402	-0.3978965417618869	-0.2493622682548354	1.9920326156948733	-0.26153552295039856	-0.266126567795549	1.910307655292876	-0.2541840330546027	-0.2645118650613255	1.973073491391193	-0.29270108939014117	-0.21998224724284102	1.999846595122522	-0.44880121350104946	-0.2167619110162005	1.9479467130991759	-0.5228172926784045	-0.22344644346420134	1.8988392550874018	-0.6084283670636708
2	0.06666666666666667	-0.22965848450050774	1.8540137672392607	-0.3343865540999896	-0.24012333560713367	1.852178793546507	-0.2788361791132143																-0.22061511355879765	1.8599883156943342	-0.4049783711488721																-0.23582875978146306	2.0016850357081215	-0.3520863336045274	-0.2570149199798764	2.0443329470566067	-0.3801931399545113	-0.24825060547223007	1.999760461579596	-0.2605533246121528	-0.2653321606975116	1.9217147803932209	-0.24675889787288666	-0.2716036309482994	1.9932641801425839	-0.3042096230127326	-0.22070359914982987	2.0062649568584003	-0.4441349102414908	-0.2205979449473653	1.958219998549058	-0.5198747450221267	-0.22732745520153624	1.9082501336513866	-0.6050693106495757
3	0.1	-0.23124742045405067	1.8595196357041819	-0.33263704504302893	-0.24063441498760874	1.8583303460680265	-0.2742878046552129																-0.22089787406030204	1.866436398533228	-0.39150184554127926																-0.23837927011838725	2.0101097123859386	-0.34656500973458354	-0.2599849851704076	2.053040941216114	-0.36793588841375646	-0.24983044322880682	2.0049220765667584	-0.2593520054692752	-0.2618885384511803	1.9297820996920017	-0.23864400550105364	-0.26783698999020117	2.002309779491652	-0.29538702083000223	-0.2235727469887347	2.0156956852981662	-0.43879299095445784	-0.22364351571103477	1.961014836861249	-0.5129624960835479	-0.2263935110056364	1.9162326373345202	-0.6031772616373512
4	0.13333333333333333	-0.2322831508402998	1.8657298760270729	-0.3279768645925693	-0.23735141353478598	1.8618479154700431	-0.2643844674273198																-0.22211570827696758	1.8722274433261457	-0.38689531128160337																-0.23998700898768865	2.013764999386161	-0.3446743443802743	-0.2591959317208873	2.0535595534199667	-0.36605540875252207	-0.24802575373396907	2.0089552274659015	-0.24801079920935862	-0.26522895342944747	1.9353084061892578	-0.23538305040279886	-0.2677314612065484	2.001976949976263	-0.2809635363161436	-0.22258615269723014	2.017874211946674	-0.43600612635889785	-0.2233659863015547	1.9691799236664478	-0.5052004562324962	-0.2283487330316123	1.921436179249152	-0.5929059686657507
5	0.16666666666666666	-0.23430225139761218	1.8687556604055948	-0.32623554553566314	-0.2381853853071738	1.867228507325467	-0.25988142335139697																-0.22324747238158443	1.873590571779272	-0.38187482099633985																-0.23884944681062922	2.0150466531722717	-0.3413704849255282	-0.2625250727188668	2.053217744648908	-0.35336845772909736	-0.24290282576414302	2.0111320144624494	-0.2407170673498978	-0.26595780794105456	1.9447891834753597	-0.2323625517743953	-0.26942891874094405	2.005580030495883	-0.27936132061684793	-0.22616838191185187	2.019873458863995	-0.4314915030038169	-0.22260713256286652	1.9739774328194395	-0.5030532615062804	-0.23037494835495037	1.9234860680500212	-0.590790255276945
6	0.2	-0.23582275207903122	1.8731695064730502	-0.3246725977741396	-0.23873006821905754	1.8692102790084764	-0.2548006747658246																-0.22474124339116597	1.8765607731017437	-0.380076190316343																-0.23761059115132033	2.0171826008009157	-0.33050417865213244	-0.26101702968217455	2.0563228640256144	-0.34194201101104776	-0.24360448383199404	2.0151591785862557	-0.23703636284735535	-0.26998349296651253	1.9478199770544335	-0.22330117819989004	-0.2683119434404108	2.0204861048084677	-0.27332419189480567	-0.22892420708513778	2.0229884436314443	-0.42436075199641343	-1.736660706392568	1.8851247422213362	1.1674089835972712	-0.23168010589574092	1.9284687827006097	-0.5861352460662582
7	0.23333333333333334	-0.23646600991792674	1.8731382642960472	-0.3190997904911505	-0.24190631862457013	1.8669090786008504	-0.24993951855721386																-0.22845125106904818	1.8761164204246854	-0.3753833091908635																-0.23905685225388182	2.0206009719706817	-0.3208305558464133	-0.26240787345506866	2.0615632261111574	-0.33366789109899075	-0.24587433066072903	2.017798259583648	-0.2300280202198679	-0.2714599966752635	1.9503823600893802	-0.22104400554520576	-0.26206889847149156	2.014304138171766	-0.25373297000048234	-0.2299601987795902	2.0269703519443674	-0.4205247157613759	-1.7511606081491924	1.8873460465251584	1.1908714116238808	-0.23475875980921868	1.9331135150620429	-0.5792573562187308
8	0.26666666666666666	-0.23742445544065657	1.8737136466591955	-0.313631234701011	-0.2446691109471081	1.8684815636412153	-0.24273031993681798																-0.22868993448617708	1.87609536524028	-0.37531201090644833																-0.23962822981476334	2.020202232524183	-0.31484348006787155	-0.26132831330146833	2.0639134438159368	-0.3309360166800562	-0.24903311390066604	2.0181184716699923	-0.22511622712422566	-0.26985833971485385	1.9576762949884938	-0.20469556947421533	-0.2624994234106395	2.01482497226733	-0.24805946983914634	-0.22866838038399281	2.0276684462568957	-0.4087000283989521	-1.7643324921112304	1.8896336417569939	1.2125330991596575	-0.2338115064989934	1.9355550229861673	-0.5763176059379068
9	0.3	-0.23997933387882703	1.8760167419061184	-0.3063102512200825	-0.24531351528474837	1.8714102221857376	-0.2376827482716674																-0.23063628724152646	1.8787662981811049	-0.3734640932528941																-0.23858040390243662	2.0253068782584083	-0.3132782301085952	-0.2608636693428442	2.067159796032622	-0.3228052962748582	-0.24516839404426685	2.0190082406964818	-0.22129283220219845	-0.2678080528051339	1.9687315848594833	-0.19453889655249998	-0.2620641388698325	2.0205787998344342	-0.2380254598240634	-0.22765729892588238	2.031022909937615	-0.406346984845902	-1.7651981095669689	1.8898971843464174	1.2135096027588095	-0.23282734829561186	1.9380203081126275	-0.5735184008339608
10	0.3333333333333333	-0.24084923625041862	1.874416705412584	-0.30056218875171375	-0.2454499426250603	1.869769362536987	-0.2373797066495244																-0.23432977419986892	1.8777084731443792	-0.3690711861429234																-0.24041034934243266	2.025308830782813	-0.3109953405856261	-0.2615610905788816	2.070266964069053	-0.3041348935217992	-0.24462460055239688	2.0185089558049993	-0.21242739889037432	-0.26949419495123594	1.9737893790113135	-0.18022790040855693	-0.26162885432902544	2.0263326274015383	-0.22799144980898045	-0.22863550969057547	2.030848716137221	-0.40113651755049573	-1.7785230704333646	1.892006231178683	1.235615311323877	-0.23458667631130856	1.9395393117277142	-0.5798890758510119
